<svg width="5630" height="3583" viewBox="0 0 5630 3583" fill="none" xmlns="http://www.w3.org/2000/svg">
<rect width="5630" height="3583" fill="white"/>
<circle cx="423" cy="526" r="146" fill="#F56D91"/>
<circle cx="791" cy="526" r="146" fill="#F56D91"/>
<circle cx="1159" cy="526" r="146" fill="#F56D91"/>
<circle cx="1527" cy="526" r="146" fill="#F56D91"/>
<circle cx="1895" cy="526" r="146" fill="#F56D91"/>
<circle cx="2263" cy="526" r="146" fill="#F56D91"/>
<circle cx="2631" cy="526" r="146" fill="#F56D91"/>
<circle cx="2999" cy="526" r="146" fill="#F56D91"/>
<circle cx="3367" cy="526" r="146" fill="#F56D91"/>
<circle cx="3735" cy="526" r="146" fill="#F56D91"/>
<circle cx="4103" cy="526" r="146" fill="#F56D91"/>
<circle cx="4471" cy="526" r="146" fill="#F56D91"/>
<circle cx="4839" cy="526" r="146" fill="#F56D91"/>
<circle cx="5207" cy="526" r="146" fill="#F56D91"/>
<circle cx="423" cy="894" r="146" fill="#F56D91"/>
<circle cx="791" cy="894" r="146" fill="#F56D91"/>
<circle cx="1159" cy="894" r="146" fill="#F56D91"/>
<circle cx="1527" cy="894" r="146" fill="#F56D91"/>
<circle cx="1895" cy="894" r="146" fill="#F56D91"/>
<circle cx="2263" cy="894" r="146" fill="#F56D91"/>
<circle cx="2631" cy="894" r="146" fill="#F56D91"/>
<circle cx="2999" cy="894" r="146" fill="#F56D91"/>
<circle cx="3367" cy="894" r="146" fill="#F56D91"/>
<circle cx="3735" cy="894" r="146" fill="#F56D91"/>
<circle cx="4103" cy="894" r="146" fill="#F56D91"/>
<circle cx="4471" cy="894" r="146" fill="#F56D91"/>
<circle cx="4839" cy="894" r="146" fill="#F56D91"/>
<circle cx="5207" cy="894" r="146" fill="#F56D91"/>
<circle cx="423" cy="1262" r="146" fill="#F56D91"/>
<circle cx="791" cy="1262" r="146" fill="#F56D91"/>
<circle cx="1159" cy="1262" r="146" fill="#D9D9D9"/>
<circle cx="1527" cy="1262" r="146" fill="#D9D9D9"/>
<circle cx="1895" cy="1262" r="146" fill="#D9D9D9"/>
<circle cx="2263" cy="1262" r="146" fill="#D9D9D9"/>
<circle cx="2631" cy="1262" r="146" fill="#D9D9D9"/>
<circle cx="2999" cy="1262" r="146" fill="#D9D9D9"/>
<circle cx="3367" cy="1262" r="146" fill="#D9D9D9"/>
<circle cx="3735" cy="1262" r="146" fill="#D9D9D9"/>
<circle cx="4103" cy="1262" r="146" fill="#D9D9D9"/>
<circle cx="4471" cy="1262" r="146" fill="#D9D9D9"/>
<circle cx="4839" cy="1262" r="146" fill="#D9D9D9"/>
<circle cx="5207" cy="1262" r="146" fill="#D9D9D9"/>
<circle cx="423" cy="1630" r="146" fill="#D9D9D9"/>
<circle cx="791" cy="1630" r="146" fill="#D9D9D9"/>
<circle cx="1159" cy="1630" r="146" fill="#D9D9D9"/>
<circle cx="1527" cy="1630" r="146" fill="#D9D9D9"/>
<circle cx="1895" cy="1630" r="146" fill="#D9D9D9"/>
<circle cx="2263" cy="1630" r="146" fill="#D9D9D9"/>
<circle cx="2631" cy="1630" r="146" fill="#D9D9D9"/>
<circle cx="2999" cy="1630" r="146" fill="#D9D9D9"/>
<circle cx="3367" cy="1630" r="146" fill="#D9D9D9"/>
<circle cx="3735" cy="1630" r="146" fill="#D9D9D9"/>
<circle cx="4103" cy="1630" r="146" fill="#D9D9D9"/>
<circle cx="4471" cy="1630" r="146" fill="#D9D9D9"/>
<circle cx="4839" cy="1630" r="146" fill="#D9D9D9"/>
<circle cx="5207" cy="1630" r="146" fill="#D9D9D9"/>
<circle cx="423" cy="1998" r="146" fill="#D9D9D9"/>
<circle cx="791" cy="1998" r="146" fill="#D9D9D9"/>
<circle cx="1159" cy="1998" r="146" fill="#D9D9D9"/>
<circle cx="1527" cy="1998" r="146" fill="#D9D9D9"/>
<circle cx="1895" cy="1998" r="146" fill="#D9D9D9"/>
<circle cx="2263" cy="1998" r="146" fill="#D9D9D9"/>
<circle cx="2631" cy="1998" r="146" fill="#D9D9D9"/>
<circle cx="2999" cy="1998" r="146" fill="#D9D9D9"/>
<circle cx="3367" cy="1998" r="146" fill="#D9D9D9"/>
<circle cx="3735" cy="1998" r="146" fill="#D9D9D9"/>
<circle cx="4103" cy="1998" r="146" fill="#D9D9D9"/>
<circle cx="4471" cy="1998" r="146" fill="#D9D9D9"/>
<circle cx="4839" cy="1998" r="146" fill="#D9D9D9"/>
<circle cx="5207" cy="1998" r="146" fill="#D9D9D9"/>
<circle cx="423" cy="2366" r="146" fill="#D9D9D9"/>
<circle cx="791" cy="2366" r="146" fill="#D9D9D9"/>
<circle cx="1159" cy="2366" r="146" fill="#D9D9D9"/>
<circle cx="1527" cy="2366" r="146" fill="#D9D9D9"/>
<circle cx="1895" cy="2366" r="146" fill="#D9D9D9"/>
<circle cx="2263" cy="2366" r="146" fill="#D9D9D9"/>
<circle cx="2631" cy="2366" r="146" fill="#D9D9D9"/>
<circle cx="2999" cy="2366" r="146" fill="#D9D9D9"/>
<circle cx="3367" cy="2366" r="146" fill="#D9D9D9"/>
<circle cx="3735" cy="2366" r="146" fill="#D9D9D9"/>
<circle cx="4103" cy="2366" r="146" fill="#D9D9D9"/>
<circle cx="4471" cy="2366" r="146" fill="#D9D9D9"/>
<circle cx="4839" cy="2366" r="146" fill="#D9D9D9"/>
<circle cx="5207" cy="2366" r="146" fill="#D9D9D9"/>
<circle cx="423" cy="2734" r="146" fill="#D9D9D9"/>
<circle cx="791" cy="2734" r="146" fill="#D9D9D9"/>
<circle cx="1159" cy="2734" r="146" fill="#D9D9D9"/>
<circle cx="1527" cy="2734" r="146" fill="#D9D9D9"/>
<circle cx="1895" cy="2734" r="146" fill="#D9D9D9"/>
<circle cx="2263" cy="2734" r="146" fill="#D9D9D9"/>
<circle cx="2631" cy="2734" r="146" fill="#D9D9D9"/>
<circle cx="2999" cy="2734" r="146" fill="#D9D9D9"/>
<circle cx="3367" cy="2734" r="146" fill="#D9D9D9"/>
<circle cx="3735" cy="2734" r="146" fill="#D9D9D9"/>
<circle cx="4103" cy="2734" r="146" fill="#D9D9D9"/>
<circle cx="4471" cy="2734" r="146" fill="#D9D9D9"/>
<circle cx="4839" cy="2734" r="146" fill="#D9D9D9"/>
<circle cx="5207" cy="2734" r="146" fill="#D9D9D9"/>
<circle cx="423" cy="3102" r="146" fill="#D9D9D9"/>
<circle cx="791" cy="3102" r="146" fill="#D9D9D9"/>
<circle cx="1159" cy="3102" r="146" fill="#D9D9D9"/>
<circle cx="1527" cy="3102" r="146" fill="#D9D9D9"/>
<circle cx="1895" cy="3102" r="146" fill="#D9D9D9"/>
<circle cx="2263" cy="3102" r="146" fill="#D9D9D9"/>
<circle cx="2631" cy="3102" r="146" fill="#D9D9D9"/>
<circle cx="2999" cy="3102" r="146" fill="#D9D9D9"/>
<circle cx="3367" cy="3102" r="146" fill="#D9D9D9"/>
<circle cx="3735" cy="3102" r="146" fill="#D9D9D9"/>
<circle cx="4103" cy="3102" r="146" fill="#D9D9D9"/>
<circle cx="4471" cy="3102" r="146" fill="#D9D9D9"/>
<circle cx="4839" cy="3102" r="146" fill="#D9D9D9"/>
<circle cx="5207" cy="3102" r="146" fill="#D9D9D9"/>
</svg>
