<svg width="3645" height="5900" viewBox="0 0 3645 5900" fill="none" xmlns="http://www.w3.org/2000/svg">
<rect width="3645" height="5900" fill="white"/>
<circle cx="394.5" cy="427.5" r="157.5" fill="#D9D9D9"/>
<circle cx="809.5" cy="427.5" r="157.5" fill="#D9D9D9"/>
<circle cx="1224.5" cy="427.5" r="157.5" fill="#D9D9D9"/>
<circle cx="1639.5" cy="427.5" r="157.5" fill="#D9D9D9"/>
<circle cx="2054.5" cy="427.5" r="157.5" fill="#D9D9D9"/>
<circle cx="2469.5" cy="427.5" r="157.5" fill="#D9D9D9"/>
<circle cx="2884.5" cy="427.5" r="157.5" fill="#D9D9D9"/>
<circle cx="3299.5" cy="427.5" r="157.5" fill="#D9D9D9"/>
<circle cx="394.5" cy="821.5" r="157.5" fill="#D9D9D9"/>
<circle cx="809.5" cy="821.5" r="157.5" fill="#D9D9D9"/>
<circle cx="1224.5" cy="821.5" r="157.5" fill="#D9D9D9"/>
<circle cx="1639.5" cy="821.5" r="157.5" fill="#D9D9D9"/>
<circle cx="2054.5" cy="821.5" r="157.5" fill="#D9D9D9"/>
<circle cx="2469.5" cy="821.5" r="157.5" fill="#D9D9D9"/>
<circle cx="2884.5" cy="821.5" r="157.5" fill="#D9D9D9"/>
<circle cx="3299.5" cy="821.5" r="157.5" fill="#F56D91"/>
<circle cx="394.5" cy="427.5" r="157.5" fill="#F56D91"/>
<circle cx="809.5" cy="427.5" r="157.5" fill="#F56D91"/>
<circle cx="1224.5" cy="427.5" r="157.5" fill="#F56D91"/>
<circle cx="1639.5" cy="427.5" r="157.5" fill="#F56D91"/>
<circle cx="2054.5" cy="427.5" r="157.5" fill="#F56D91"/>
<circle cx="2469.5" cy="427.5" r="157.5" fill="#F56D91"/>
<circle cx="2884.5" cy="427.5" r="157.5" fill="#F56D91"/>
<circle cx="3299.5" cy="427.5" r="157.5" fill="#F56D91"/>
<circle cx="394.5" cy="821.5" r="157.5" fill="#F56D91"/>
<circle cx="809.5" cy="821.5" r="157.5" fill="#F56D91"/>
<circle cx="1224.5" cy="821.5" r="157.5" fill="#F56D91"/>
<circle cx="1639.5" cy="821.5" r="157.5" fill="#F56D91"/>
<circle cx="2054.5" cy="821.5" r="157.5" fill="#F56D91"/>
<circle cx="2469.5" cy="821.5" r="157.5" fill="#F56D91"/>
<circle cx="2884.5" cy="821.5" r="157.5" fill="#F56D91"/>
<circle cx="394.5" cy="1215.5" r="157.5" fill="#F56D91"/>
<circle cx="809.5" cy="1215.5" r="157.5" fill="#F56D91"/>
<circle cx="1224.5" cy="1215.5" r="157.5" fill="#F56D91"/>
<circle cx="1639.5" cy="1215.5" r="157.5" fill="#F56D91"/>
<circle cx="2054.5" cy="1215.5" r="157.5" fill="#F56D91"/>
<circle cx="2469.5" cy="1215.5" r="157.5" fill="#F56D91"/>
<circle cx="2884.5" cy="1215.5" r="157.5" fill="#F56D91"/>
<circle cx="3299.5" cy="1215.5" r="157.5" fill="#F56D91"/>
<circle cx="394.5" cy="1609.5" r="157.5" fill="#F56D91"/>
<circle cx="809.5" cy="1609.5" r="157.5" fill="#F56D91"/>
<circle cx="1224.5" cy="1609.5" r="157.5" fill="#F56D91"/>
<circle cx="1639.5" cy="1609.5" r="157.5" fill="#F56D91"/>
<circle cx="2054.5" cy="1609.5" r="157.5" fill="#F56D91"/>
<circle cx="2469.5" cy="1609.5" r="157.5" fill="#F56D91"/>
<circle cx="2884.5" cy="1609.5" r="157.5" fill="#D9D9D9"/>
<circle cx="3299.5" cy="1609.5" r="157.5" fill="#D9D9D9"/>
<circle cx="394.5" cy="2003.5" r="157.5" fill="#D9D9D9"/>
<circle cx="809.5" cy="2003.5" r="157.5" fill="#D9D9D9"/>
<circle cx="1224.5" cy="2003.5" r="157.5" fill="#D9D9D9"/>
<circle cx="1639.5" cy="2003.5" r="157.5" fill="#D9D9D9"/>
<circle cx="2054.5" cy="2003.5" r="157.5" fill="#D9D9D9"/>
<circle cx="2469.5" cy="2003.5" r="157.5" fill="#D9D9D9"/>
<circle cx="2884.5" cy="2003.5" r="157.5" fill="#D9D9D9"/>
<circle cx="3299.5" cy="2003.5" r="157.5" fill="#D9D9D9"/>
<circle cx="394.5" cy="2397.5" r="157.5" fill="#D9D9D9"/>
<circle cx="809.5" cy="2397.5" r="157.5" fill="#D9D9D9"/>
<circle cx="1224.5" cy="2397.5" r="157.5" fill="#D9D9D9"/>
<circle cx="1639.5" cy="2397.5" r="157.5" fill="#D9D9D9"/>
<circle cx="2054.5" cy="2397.5" r="157.5" fill="#D9D9D9"/>
<circle cx="2469.5" cy="2397.5" r="157.5" fill="#D9D9D9"/>
<circle cx="2884.5" cy="2397.5" r="157.5" fill="#D9D9D9"/>
<circle cx="3299.5" cy="2397.5" r="157.5" fill="#D9D9D9"/>
<circle cx="394.5" cy="2791.5" r="157.5" fill="#D9D9D9"/>
<circle cx="809.5" cy="2791.5" r="157.5" fill="#D9D9D9"/>
<circle cx="1224.5" cy="2791.5" r="157.5" fill="#D9D9D9"/>
<circle cx="1639.5" cy="2791.5" r="157.5" fill="#D9D9D9"/>
<circle cx="2054.5" cy="2791.5" r="157.5" fill="#D9D9D9"/>
<circle cx="2469.5" cy="2791.5" r="157.5" fill="#D9D9D9"/>
<circle cx="2884.5" cy="2791.5" r="157.5" fill="#D9D9D9"/>
<circle cx="3299.5" cy="2791.5" r="157.5" fill="#D9D9D9"/>
<circle cx="394.5" cy="3185.5" r="157.5" fill="#D9D9D9"/>
<circle cx="809.5" cy="3185.5" r="157.5" fill="#D9D9D9"/>
<circle cx="1224.5" cy="3185.5" r="157.5" fill="#D9D9D9"/>
<circle cx="1639.5" cy="3185.5" r="157.5" fill="#D9D9D9"/>
<circle cx="2054.5" cy="3185.5" r="157.5" fill="#D9D9D9"/>
<circle cx="2469.5" cy="3185.5" r="157.5" fill="#D9D9D9"/>
<circle cx="2884.5" cy="3185.5" r="157.5" fill="#D9D9D9"/>
<circle cx="3299.5" cy="3185.5" r="157.5" fill="#D9D9D9"/>
<circle cx="394.5" cy="3579.5" r="157.5" fill="#D9D9D9"/>
<circle cx="809.5" cy="3579.5" r="157.5" fill="#D9D9D9"/>
<circle cx="1224.5" cy="3579.5" r="157.5" fill="#D9D9D9"/>
<circle cx="1639.5" cy="3579.5" r="157.5" fill="#D9D9D9"/>
<circle cx="2054.5" cy="3579.5" r="157.5" fill="#D9D9D9"/>
<circle cx="2469.5" cy="3579.5" r="157.5" fill="#D9D9D9"/>
<circle cx="2884.5" cy="3579.5" r="157.5" fill="#D9D9D9"/>
<circle cx="3299.5" cy="3579.5" r="157.5" fill="#D9D9D9"/>
<circle cx="394.5" cy="3973.5" r="157.5" fill="#D9D9D9"/>
<circle cx="809.5" cy="3973.5" r="157.5" fill="#D9D9D9"/>
<circle cx="1224.5" cy="3973.5" r="157.5" fill="#D9D9D9"/>
<circle cx="1639.5" cy="3973.5" r="157.5" fill="#D9D9D9"/>
<circle cx="2054.5" cy="3973.5" r="157.5" fill="#D9D9D9"/>
<circle cx="2469.5" cy="3973.5" r="157.5" fill="#D9D9D9"/>
<circle cx="2884.5" cy="3973.5" r="157.5" fill="#D9D9D9"/>
<circle cx="3299.5" cy="3973.5" r="157.5" fill="#D9D9D9"/>
<circle cx="394.5" cy="4367.5" r="157.5" fill="#D9D9D9"/>
<circle cx="809.5" cy="4367.5" r="157.5" fill="#D9D9D9"/>
<circle cx="1224.5" cy="4367.5" r="157.5" fill="#D9D9D9"/>
<circle cx="1639.5" cy="4367.5" r="157.5" fill="#D9D9D9"/>
<circle cx="2054.5" cy="4367.5" r="157.5" fill="#D9D9D9"/>
<circle cx="2469.5" cy="4367.5" r="157.5" fill="#D9D9D9"/>
<circle cx="2884.5" cy="4367.5" r="157.5" fill="#D9D9D9"/>
<circle cx="3299.5" cy="4367.5" r="157.5" fill="#D9D9D9"/>
<circle cx="394.5" cy="4761.5" r="157.5" fill="#D9D9D9"/>
<circle cx="809.5" cy="4761.5" r="157.5" fill="#D9D9D9"/>
<circle cx="1224.5" cy="4761.5" r="157.5" fill="#D9D9D9"/>
<circle cx="1639.5" cy="4761.5" r="157.5" fill="#D9D9D9"/>
<circle cx="2054.5" cy="4761.5" r="157.5" fill="#D9D9D9"/>
<circle cx="2469.5" cy="4761.5" r="157.5" fill="#D9D9D9"/>
<circle cx="2884.5" cy="4761.5" r="157.5" fill="#D9D9D9"/>
<circle cx="3299.5" cy="4761.5" r="157.5" fill="#D9D9D9"/>
<circle cx="394.5" cy="5155.5" r="157.5" fill="#D9D9D9"/>
<circle cx="809.5" cy="5155.5" r="157.5" fill="#D9D9D9"/>
<circle cx="1224.5" cy="5155.5" r="157.5" fill="#D9D9D9"/>
<circle cx="1639.5" cy="5155.5" r="157.5" fill="#D9D9D9"/>
<circle cx="2054.5" cy="5155.5" r="157.5" fill="#D9D9D9"/>
<circle cx="2469.5" cy="5155.5" r="157.5" fill="#D9D9D9"/>
<circle cx="2884.5" cy="5155.5" r="157.5" fill="#D9D9D9"/>
<circle cx="3299.5" cy="5155.5" r="157.5" fill="#D9D9D9"/>
<circle cx="394.5" cy="5549.5" r="157.5" fill="#D9D9D9"/>
<circle cx="809.5" cy="5549.5" r="157.5" fill="#D9D9D9"/>
<circle cx="1224.5" cy="5549.5" r="157.5" fill="#D9D9D9"/>
<circle cx="1639.5" cy="5549.5" r="157.5" fill="#D9D9D9"/>
<circle cx="2054.5" cy="5549.5" r="157.5" fill="#D9D9D9"/>
<circle cx="2469.5" cy="5549.5" r="157.5" fill="#D9D9D9"/>
<circle cx="2884.5" cy="5549.5" r="157.5" fill="#D9D9D9"/>
<circle cx="3299.5" cy="5549.5" r="157.5" fill="#D9D9D9"/>
</svg>
